<svg xmlns="http://www.w3.org/2000/svg" width="512" height="512" viewBox="0 0 512 512">
  <g id="Group_45" data-name="Group 45" transform="translate(-3967 4746)">
    <circle id="Ellipse_5" data-name="Ellipse 5" cx="256" cy="256" r="256" transform="translate(3967 -4746)" fill="#ee5c4d"/>
    <path id="Path_41" data-name="Path 41" d="M287.494,265.447l-97.22,97.22a30.17,30.17,0,0,0,0,42.667h0a30.172,30.172,0,0,0,42.667,0l128-128a30.17,30.17,0,0,0,0-42.667l-128-128a30.172,30.172,0,0,0-42.667,0h0a30.17,30.17,0,0,0,0,42.667l97.22,97.22A13.358,13.358,0,0,1,287.494,265.447Z" transform="translate(3947 -4746)" fill="#000000"/>
  </g>
</svg>
